<svg width="161" height="31" viewBox="0 0 161 31" fill="none" xmlns="http://www.w3.org/2000/svg">
<path d="M28.4284 2.72351C29.2485 3.05154 29.6094 4.00282 29.2813 4.7901C29.0189 5.41336 28.4284 5.77419 27.8052 5.77419C27.6084 5.77419 27.3787 5.74139 27.1819 5.64298C23.2127 3.97002 18.9811 3.14994 14.6839 3.14994C13.7982 3.14994 13.1094 2.42828 13.1094 1.5754C13.1094 0.722514 13.831 0.000848529 14.6839 0.000848529C19.4404 -0.0319546 24.0656 0.886529 28.4284 2.72351Z" fill="white"/>
<path d="M28.4296 9.08707C29.2496 9.4151 29.6105 10.3664 29.2824 11.1537C29.02 11.7769 28.4296 12.1378 27.8063 12.1378C27.6095 12.1378 27.3799 12.105 27.183 12.0065C23.2139 10.3336 19.0151 9.51351 14.685 9.51351C10.3222 9.51351 6.12343 10.3336 2.18705 11.9738C1.36697 12.3018 0.448486 11.9409 0.120454 11.1209C-0.207577 10.3008 0.153255 9.38229 0.973333 9.05426C5.30335 7.25009 9.89578 6.3316 14.685 6.3316C19.4415 6.3316 24.0667 7.25009 28.4296 9.08707Z" fill="white"/>
<path d="M22.2954 13.5161C23.1482 13.7129 23.7059 14.533 23.5091 15.3859C23.3123 16.2388 22.4922 16.7964 21.6393 16.5996C19.3103 16.1076 16.9813 15.8451 14.7178 15.8451C10.355 15.8451 6.15623 16.6652 2.21985 18.3382C2.02303 18.4038 1.82622 18.4694 1.59659 18.4694C0.973336 18.4694 0.382879 18.1086 0.120454 17.4853C-0.207577 16.6652 0.153255 15.7467 0.973333 15.4187C5.30334 13.6145 9.89578 12.696 14.685 12.696C17.2109 12.696 19.7695 12.9585 22.2954 13.5161Z" fill="white"/>
<path d="M14.7178 19.0266C15.6035 19.0266 16.2924 19.7483 16.2924 20.6012C16.2924 21.4541 15.5707 22.1757 14.7178 22.1757C10.355 22.1757 6.15623 22.9958 2.21985 24.6688C2.02303 24.7344 1.82622 24.8 1.59659 24.8C0.973335 24.8 0.382879 24.4391 0.120454 23.8159C-0.207577 22.9958 0.153255 22.0773 0.973332 21.7493C5.33615 19.9451 9.92859 19.0266 14.7178 19.0266Z" fill="white"/>
<mask id="path-5-outside-1_7832_120651" maskUnits="userSpaceOnUse" x="39.6152" y="6.23355" width="121" height="24" fill="black">
<rect fill="white" x="39.6152" y="6.23355" width="121" height="24"/>
<path d="M43.8144 25.1888V23.9839C45.0543 25.3169 45.7488 25.4864 47.4353 25.4864C50.9073 25.4864 53.1889 22.7336 53.1889 19.0384C53.1889 15.4176 51.1305 12.6648 47.5593 12.6648C45.7488 12.6648 44.4096 13.4584 43.864 14.3264V7.23355H40.6152V25.1888H43.8144ZM50.221 19.1169C50.221 21.3489 48.5513 22.5352 46.8649 22.5352C45.2032 22.5352 43.5043 21.3241 43.5043 19.1169C43.5043 16.8849 45.2032 15.616 46.8649 15.616C48.5513 15.616 50.221 16.8849 50.221 19.1169Z"/>
<path d="M63.4896 25.1888H66.6392C66.5896 24.7672 66.5152 23.924 66.5152 22.9816V12.9872H63.2168V20.08C63.2168 21.4936 62.3736 22.4856 60.9104 22.4856C59.3728 22.4856 58.6784 21.3944 58.6784 20.0304V12.9872H55.38V20.7C55.38 23.3536 57.0664 25.5112 60.0176 25.5112C61.3072 25.5112 62.7208 25.0152 63.3904 23.8744C63.3904 24.3704 63.44 24.9408 63.4896 25.1888Z"/>
<path d="M73.0857 18.1704C73.0857 16.7568 73.9289 15.6408 75.3673 15.6408C76.9545 15.6408 77.6241 16.7072 77.6241 18.0712V25.1888H80.9225V17.5008C80.9225 14.8224 78.6378 12.9872 76.5711 12.9169C75.8253 12.8915 74.1056 12.6648 73.0857 13.7244V12.9872H69.7873V25.1888H73.0857V18.1704Z"/>
<path d="M110.457 21.7912C110.606 23.18 111.871 25.5608 115.541 25.5608C118.74 25.5608 120.278 23.5272 120.278 21.5432C120.278 19.7576 119.063 18.2944 116.657 17.7984L114.921 17.4264C114.252 17.3024 113.805 16.9304 113.805 16.3352C113.805 15.6408 114.5 15.12 115.368 15.12C116.756 15.12 117.277 16.0376 117.376 16.7568L120.129 16.1368C119.98 14.8224 118.815 12.6152 115.343 12.6152C112.714 12.6152 110.78 14.4256 110.78 16.608C110.78 18.3192 111.846 19.7328 114.202 20.2536L115.814 20.6256C116.756 20.824 117.128 21.2704 117.128 21.816C117.128 22.4608 116.608 23.0312 115.516 23.0312C114.078 23.0312 113.359 22.1384 113.284 21.1712L110.457 21.7912Z"/>
<path d="M125.981 18.0216C126.055 16.6824 126.873 15.6408 128.262 15.6408C129.849 15.6408 130.519 16.7072 130.519 18.0712V25.1888H133.817V17.5008C133.817 14.8224 132.379 12.6648 129.279 12.6648C128.113 12.6648 126.774 13.0616 125.981 14.004V7.23355H122.682V25.1888H125.981V18.0216Z"/>
<path d="M139.323 17.6992C139.397 16.5832 140.339 15.2936 142.051 15.2936C143.935 15.2936 144.729 16.484 144.779 17.6992H139.323ZM145.101 20.8736C144.704 21.9648 143.861 22.7336 142.323 22.7336C140.687 22.7336 139.323 21.568 139.248 19.956H147.978C147.978 19.9064 148.027 19.4104 148.027 18.9392C148.027 15.0208 145.771 12.6152 142.001 12.6152C138.876 12.6152 135.999 15.1448 135.999 19.0384C135.999 23.1552 138.951 25.5608 142.299 25.5608C145.299 25.5608 147.234 23.8 147.854 21.692L145.101 20.8736Z"/>
<path d="M153.675 25.1888V7.23355H150.377V25.1888H153.675Z"/>
<path d="M160.257 25.1888V7.23355H156.959V25.1888H160.257Z"/>
<path d="M101.588 30L112.618 7.23355H108.971L98.0915 30H101.588Z"/>
<path d="M99.6431 12.6648H95.9479L98.2711 18.1125L99.4328 20.8364L100.014 22.1983L102.08 18.0216L101.267 16.236L100.455 14.4504L99.6431 12.6648Z"/>
<path d="M73.0857 18.1704C73.0857 16.7568 73.9289 15.6408 75.3673 15.6408C76.9545 15.6408 77.6241 16.7072 77.6241 18.0712V25.1888H80.9225V17.5008C80.9225 14.8224 78.6378 12.9872 76.5711 12.9169C75.8253 12.8915 74.1056 12.6648 73.0857 13.7244V12.9872H69.7873V25.1888H73.0857V18.1704Z"/>
<path d="M87.1968 18.1703C87.1968 16.7567 88.04 15.6407 89.4784 15.6407C91.0656 15.6407 91.7352 16.7071 91.7352 18.0711V25.1887H95.0336V17.5007C95.0336 14.8223 92.7489 12.9871 90.6822 12.9168C89.9364 12.8915 88.2167 12.6647 87.1968 13.7243V12.9871H83.8984V25.1887H87.1968V18.1703Z"/>
<path d="M87.1968 18.1703C87.1968 16.7567 88.04 15.6407 89.4784 15.6407C91.0656 15.6407 91.7352 16.7071 91.7352 18.0711V25.1887H95.0336V17.5007C95.0336 14.8223 92.7489 12.9871 90.6822 12.9168C89.9364 12.8915 88.2167 12.6647 87.1968 13.7243V12.9871H83.8984V25.1887H87.1968V18.1703Z"/>
</mask>
<path d="M43.8144 25.1888V23.9839C45.0543 25.3169 45.7488 25.4864 47.4353 25.4864C50.9073 25.4864 53.1889 22.7336 53.1889 19.0384C53.1889 15.4176 51.1305 12.6648 47.5593 12.6648C45.7488 12.6648 44.4096 13.4584 43.864 14.3264V7.23355H40.6152V25.1888H43.8144ZM50.221 19.1169C50.221 21.3489 48.5513 22.5352 46.8649 22.5352C45.2032 22.5352 43.5043 21.3241 43.5043 19.1169C43.5043 16.8849 45.2032 15.616 46.8649 15.616C48.5513 15.616 50.221 16.8849 50.221 19.1169Z" fill="white"/>
<path d="M63.4896 25.1888H66.6392C66.5896 24.7672 66.5152 23.924 66.5152 22.9816V12.9872H63.2168V20.08C63.2168 21.4936 62.3736 22.4856 60.9104 22.4856C59.3728 22.4856 58.6784 21.3944 58.6784 20.0304V12.9872H55.38V20.7C55.38 23.3536 57.0664 25.5112 60.0176 25.5112C61.3072 25.5112 62.7208 25.0152 63.3904 23.8744C63.3904 24.3704 63.44 24.9408 63.4896 25.1888Z" fill="white"/>
<path d="M73.0857 18.1704C73.0857 16.7568 73.9289 15.6408 75.3673 15.6408C76.9545 15.6408 77.6241 16.7072 77.6241 18.0712V25.1888H80.9225V17.5008C80.9225 14.8224 78.6378 12.9872 76.5711 12.9169C75.8253 12.8915 74.1056 12.6648 73.0857 13.7244V12.9872H69.7873V25.1888H73.0857V18.1704Z" fill="white"/>
<path d="M110.457 21.7912C110.606 23.18 111.871 25.5608 115.541 25.5608C118.74 25.5608 120.278 23.5272 120.278 21.5432C120.278 19.7576 119.063 18.2944 116.657 17.7984L114.921 17.4264C114.252 17.3024 113.805 16.9304 113.805 16.3352C113.805 15.6408 114.5 15.12 115.368 15.12C116.756 15.12 117.277 16.0376 117.376 16.7568L120.129 16.1368C119.98 14.8224 118.815 12.6152 115.343 12.6152C112.714 12.6152 110.78 14.4256 110.78 16.608C110.78 18.3192 111.846 19.7328 114.202 20.2536L115.814 20.6256C116.756 20.824 117.128 21.2704 117.128 21.816C117.128 22.4608 116.608 23.0312 115.516 23.0312C114.078 23.0312 113.359 22.1384 113.284 21.1712L110.457 21.7912Z" fill="white"/>
<path d="M125.981 18.0216C126.055 16.6824 126.873 15.6408 128.262 15.6408C129.849 15.6408 130.519 16.7072 130.519 18.0712V25.1888H133.817V17.5008C133.817 14.8224 132.379 12.6648 129.279 12.6648C128.113 12.6648 126.774 13.0616 125.981 14.004V7.23355H122.682V25.1888H125.981V18.0216Z" fill="white"/>
<path d="M139.323 17.6992C139.397 16.5832 140.339 15.2936 142.051 15.2936C143.935 15.2936 144.729 16.484 144.779 17.6992H139.323ZM145.101 20.8736C144.704 21.9648 143.861 22.7336 142.323 22.7336C140.687 22.7336 139.323 21.568 139.248 19.956H147.978C147.978 19.9064 148.027 19.4104 148.027 18.9392C148.027 15.0208 145.771 12.6152 142.001 12.6152C138.876 12.6152 135.999 15.1448 135.999 19.0384C135.999 23.1552 138.951 25.5608 142.299 25.5608C145.299 25.5608 147.234 23.8 147.854 21.692L145.101 20.8736Z" fill="white"/>
<path d="M153.675 25.1888V7.23355H150.377V25.1888H153.675Z" fill="white"/>
<path d="M160.257 25.1888V7.23355H156.959V25.1888H160.257Z" fill="white"/>
<path d="M101.588 30L112.618 7.23355H108.971L98.0915 30H101.588Z" fill="white"/>
<path d="M99.6431 12.6648H95.9479L98.2711 18.1125L99.4328 20.8364L100.014 22.1983L102.08 18.0216L101.267 16.236L100.455 14.4504L99.6431 12.6648Z" fill="white"/>
<path d="M73.0857 18.1704C73.0857 16.7568 73.9289 15.6408 75.3673 15.6408C76.9545 15.6408 77.6241 16.7072 77.6241 18.0712V25.1888H80.9225V17.5008C80.9225 14.8224 78.6378 12.9872 76.5711 12.9169C75.8253 12.8915 74.1056 12.6648 73.0857 13.7244V12.9872H69.7873V25.1888H73.0857V18.1704Z" fill="white"/>
<path d="M87.1968 18.1703C87.1968 16.7567 88.04 15.6407 89.4784 15.6407C91.0656 15.6407 91.7352 16.7071 91.7352 18.0711V25.1887H95.0336V17.5007C95.0336 14.8223 92.7489 12.9871 90.6822 12.9168C89.9364 12.8915 88.2167 12.6647 87.1968 13.7243V12.9871H83.8984V25.1887H87.1968V18.1703Z" fill="white"/>
<path d="M87.1968 18.1703C87.1968 16.7567 88.04 15.6407 89.4784 15.6407C91.0656 15.6407 91.7352 16.7071 91.7352 18.0711V25.1887H95.0336V17.5007C95.0336 14.8223 92.7489 12.9871 90.6822 12.9168C89.9364 12.8915 88.2167 12.6647 87.1968 13.7243V12.9871H83.8984V25.1887H87.1968V18.1703Z" fill="white"/>
<path d="M43.8144 25.1888V23.9839C45.0543 25.3169 45.7488 25.4864 47.4353 25.4864C50.9073 25.4864 53.1889 22.7336 53.1889 19.0384C53.1889 15.4176 51.1305 12.6648 47.5593 12.6648C45.7488 12.6648 44.4096 13.4584 43.864 14.3264V7.23355H40.6152V25.1888H43.8144ZM50.221 19.1169C50.221 21.3489 48.5513 22.5352 46.8649 22.5352C45.2032 22.5352 43.5043 21.3241 43.5043 19.1169C43.5043 16.8849 45.2032 15.616 46.8649 15.616C48.5513 15.616 50.221 16.8849 50.221 19.1169Z" stroke="white" stroke-width="0.11731" mask="url(#path-5-outside-1_7832_120651)"/>
<path d="M63.4896 25.1888H66.6392C66.5896 24.7672 66.5152 23.924 66.5152 22.9816V12.9872H63.2168V20.08C63.2168 21.4936 62.3736 22.4856 60.9104 22.4856C59.3728 22.4856 58.6784 21.3944 58.6784 20.0304V12.9872H55.38V20.7C55.38 23.3536 57.0664 25.5112 60.0176 25.5112C61.3072 25.5112 62.7208 25.0152 63.3904 23.8744C63.3904 24.3704 63.44 24.9408 63.4896 25.1888Z" stroke="white" stroke-width="0.11731" mask="url(#path-5-outside-1_7832_120651)"/>
<path d="M73.0857 18.1704C73.0857 16.7568 73.9289 15.6408 75.3673 15.6408C76.9545 15.6408 77.6241 16.7072 77.6241 18.0712V25.1888H80.9225V17.5008C80.9225 14.8224 78.6378 12.9872 76.5711 12.9169C75.8253 12.8915 74.1056 12.6648 73.0857 13.7244V12.9872H69.7873V25.1888H73.0857V18.1704Z" stroke="white" stroke-width="0.11731" mask="url(#path-5-outside-1_7832_120651)"/>
<path d="M110.457 21.7912C110.606 23.18 111.871 25.5608 115.541 25.5608C118.74 25.5608 120.278 23.5272 120.278 21.5432C120.278 19.7576 119.063 18.2944 116.657 17.7984L114.921 17.4264C114.252 17.3024 113.805 16.9304 113.805 16.3352C113.805 15.6408 114.5 15.12 115.368 15.12C116.756 15.12 117.277 16.0376 117.376 16.7568L120.129 16.1368C119.98 14.8224 118.815 12.6152 115.343 12.6152C112.714 12.6152 110.78 14.4256 110.78 16.608C110.78 18.3192 111.846 19.7328 114.202 20.2536L115.814 20.6256C116.756 20.824 117.128 21.2704 117.128 21.816C117.128 22.4608 116.608 23.0312 115.516 23.0312C114.078 23.0312 113.359 22.1384 113.284 21.1712L110.457 21.7912Z" stroke="white" stroke-width="0.11731" mask="url(#path-5-outside-1_7832_120651)"/>
<path d="M125.981 18.0216C126.055 16.6824 126.873 15.6408 128.262 15.6408C129.849 15.6408 130.519 16.7072 130.519 18.0712V25.1888H133.817V17.5008C133.817 14.8224 132.379 12.6648 129.279 12.6648C128.113 12.6648 126.774 13.0616 125.981 14.004V7.23355H122.682V25.1888H125.981V18.0216Z" stroke="white" stroke-width="0.11731" mask="url(#path-5-outside-1_7832_120651)"/>
<path d="M139.323 17.6992C139.397 16.5832 140.339 15.2936 142.051 15.2936C143.935 15.2936 144.729 16.484 144.779 17.6992H139.323ZM145.101 20.8736C144.704 21.9648 143.861 22.7336 142.323 22.7336C140.687 22.7336 139.323 21.568 139.248 19.956H147.978C147.978 19.9064 148.027 19.4104 148.027 18.9392C148.027 15.0208 145.771 12.6152 142.001 12.6152C138.876 12.6152 135.999 15.1448 135.999 19.0384C135.999 23.1552 138.951 25.5608 142.299 25.5608C145.299 25.5608 147.234 23.8 147.854 21.692L145.101 20.8736Z" stroke="white" stroke-width="0.11731" mask="url(#path-5-outside-1_7832_120651)"/>
<path d="M153.675 25.1888V7.23355H150.377V25.1888H153.675Z" stroke="white" stroke-width="0.11731" mask="url(#path-5-outside-1_7832_120651)"/>
<path d="M160.257 25.1888V7.23355H156.959V25.1888H160.257Z" stroke="white" stroke-width="0.11731" mask="url(#path-5-outside-1_7832_120651)"/>
<path d="M101.588 30L112.618 7.23355H108.971L98.0915 30H101.588Z" stroke="white" stroke-width="0.11731" mask="url(#path-5-outside-1_7832_120651)"/>
<path d="M99.6431 12.6648H95.9479L98.2711 18.1125L99.4328 20.8364L100.014 22.1983L102.08 18.0216L101.267 16.236L100.455 14.4504L99.6431 12.6648Z" stroke="white" stroke-width="0.11731" mask="url(#path-5-outside-1_7832_120651)"/>
<path d="M73.0857 18.1704C73.0857 16.7568 73.9289 15.6408 75.3673 15.6408C76.9545 15.6408 77.6241 16.7072 77.6241 18.0712V25.1888H80.9225V17.5008C80.9225 14.8224 78.6378 12.9872 76.5711 12.9169C75.8253 12.8915 74.1056 12.6648 73.0857 13.7244V12.9872H69.7873V25.1888H73.0857V18.1704Z" stroke="white" stroke-width="0.11731" mask="url(#path-5-outside-1_7832_120651)"/>
<path d="M87.1968 18.1703C87.1968 16.7567 88.04 15.6407 89.4784 15.6407C91.0656 15.6407 91.7352 16.7071 91.7352 18.0711V25.1887H95.0336V17.5007C95.0336 14.8223 92.7489 12.9871 90.6822 12.9168C89.9364 12.8915 88.2167 12.6647 87.1968 13.7243V12.9871H83.8984V25.1887H87.1968V18.1703Z" stroke="white" stroke-width="0.11731" mask="url(#path-5-outside-1_7832_120651)"/>
<path d="M87.1968 18.1703C87.1968 16.7567 88.04 15.6407 89.4784 15.6407C91.0656 15.6407 91.7352 16.7071 91.7352 18.0711V25.1887H95.0336V17.5007C95.0336 14.8223 92.7489 12.9871 90.6822 12.9168C89.9364 12.8915 88.2167 12.6647 87.1968 13.7243V12.9871H83.8984V25.1887H87.1968V18.1703Z" stroke="white" stroke-width="0.11731" mask="url(#path-5-outside-1_7832_120651)"/>
</svg>
